<svg id="Layer_1" data-name="Layer 1" xmlns="http://www.w3.org/2000/svg" viewBox="0 0 300 294.34">
  <defs>
    <style>
      .cls-1 {
        fill: #f6891f;
      }

      .cls-2 {
        fill: #010101;
      }

      .cls-3 {
        fill: #f3f3f3;
      }

      .cls-4 {
        fill: #fdd116;
      }

      .cls-5 {
        fill: #b4b4b4;
      }

      .cls-6, .cls-9 {
        fill: #fff;
      }

      .cls-7 {
        fill: #e6e6e5;
      }

      .cls-8 {
        fill: #989898;
      }

      .cls-9 {
        opacity: 0.38;
      }

      .cls-10 {
        fill: #333;
      }

      .cls-11 {
        fill: #70cddd;
      }

      .cls-12 {
        fill: #4e4e4e;
      }
    </style>
  </defs>
  <title>bot-wappu</title>
  <g>
    <g>
      <g>
        <path class="cls-1" d="M-1630.77,1201.42c-2.51,6.42-5.39,9.48-12.12,10.95-7.47,1.63-13-1.85-19.4-7.77,0.93-5.52,1.1-5,2.65-10.38,3.73,4.17,9,8.58,12.47,7.66s4.78-1.86,4.55-7c-0.66-15.26-44.52-61.2,9.73-72.8,7.43-1.59-9.51,15.78-1.06,46.13C-1631,1178.58-1626.63,1190.82-1630.77,1201.42Z" transform="translate(1896.11 -985.21)"/>
        <path class="cls-2" d="M-1646.44,1213.92c-6.11,0-11.17-3.41-16.63-8.48l-0.46-.42,0.1-.61a40.64,40.64,0,0,1,1.63-7c0.27-.85.6-1.91,1.05-3.47l0.58-2,1.39,1.56c4.52,5.06,9,7.93,11.32,7.32,3-.77,3.89-1.24,3.69-5.87-0.16-3.65-3.09-9.43-6.48-16.13-6.61-13.05-14.83-29.29-8.8-41.91,3.72-7.8,12.2-13,25.92-15.95a2.89,2.89,0,0,1,2.78.56c1.1,1.22.46,3.15-.8,7-2.39,7.31-6.83,20.91-1.68,39.38,0.31,1.13.65,2.27,1,3.44,2.8,9.71,6,20.72,2.15,30.53h0c-2.78,7.13-6.17,10.18-13,11.66A17.78,17.78,0,0,1-1646.44,1213.92Zm-14.6-9.75c6,5.48,11.14,8.54,17.91,7.07,6-1.31,8.78-3.8,11.29-10.24,3.55-9.09.48-19.7-2.22-29.05-0.34-1.17-.67-2.33-1-3.46-5.33-19.14-.75-33.17,1.71-40.71a22.68,22.68,0,0,0,1.25-4.67,2.9,2.9,0,0,0-.55.08c-12.79,2.74-21,7.68-24.32,14.68-5.54,11.59,2.4,27.27,8.78,39.87,3.51,6.94,6.54,12.93,6.72,17.08,0.25,5.74-1.47,7.17-5.42,8.2s-9.21-3.42-12.23-6.52c-0.19.61-.35,1.12-0.49,1.58A36.46,36.46,0,0,0-1661,1204.18Z" transform="translate(1896.11 -985.21)"/>
      </g>
      <g>
        <path class="cls-3" d="M-1830.22,1227.6c1.18,1.17,3.21,1,4.61.1a12.78,12.78,0,0,0,3.27-3.71c4.57-6.57,10.35-11.43,16.89-15.9,7.28-5,5.94-9.84-3.6-10.16-6-.21-9.77,3.56-13.09,8.13C-1824.76,1209.64-1834.4,1223.46-1830.22,1227.6Z" transform="translate(1896.11 -985.21)"/>
        <path class="cls-2" d="M-1828.05,1229.58a4.14,4.14,0,0,1-3-1.16h0c-4.47-4.43,3.06-16.34,8-23.05,3.35-4.6,7.4-8.81,14.07-8.6,5.19,0.18,8.46,1.69,9.21,4.26s-1.05,5.32-5,8c-7.58,5.19-12.7,10-16.59,15.61l-0.23.34a12.49,12.49,0,0,1-3.36,3.68A5.79,5.79,0,0,1-1828.05,1229.58Zm-1.35-2.8c0.76,0.75,2.21.57,3.17-.05a10.62,10.62,0,0,0,2.71-3.05l0.24-.35c4.06-5.85,9.37-10.85,17.19-16.2,2.91-2,4.48-4.09,4.08-5.46-0.33-1.15-2.37-2.43-7.07-2.59-5.6-.2-9.14,3.57-12.12,7.65-7.13,9.79-10.42,17.84-8.19,20h0Z" transform="translate(1896.11 -985.21)"/>
      </g>
      <g>
        <path class="cls-4" d="M-1770.93,1157.33a24.36,24.36,0,0,0-3.12-7.45l-7.11-12.77L-1788,1126c-3.64-3.83-8.88-6.45-14.13-5.87s-10.15,5-10.24,10.29c-0.05,3.28,1.61,6.33,3.32,9.14a141.82,141.82,0,0,0,13.33,18.36,24.18,24.18,0,0,0,2.91,3,26.43,26.43,0,0,0,6.75,3.64c4.26,1.79,9.66,3.4,13.06.28C-1771,1163-1770.46,1160-1770.93,1157.33Z" transform="translate(1896.11 -985.21)"/>
        <path class="cls-2" d="M-1778,1167.74a23.18,23.18,0,0,1-8.53-2.13,27.27,27.27,0,0,1-7-3.81,25.37,25.37,0,0,1-3.05-3.14,143.27,143.27,0,0,1-13.44-18.51c-1.72-2.82-3.55-6.13-3.49-9.76,0.09-5.61,5.15-10.73,11.27-11.41,5.19-.58,10.84,1.75,15.09,6.22l0.15,0.19,6.84,11.12,7.14,12.81a25.53,25.53,0,0,1,3.25,7.81h0a9.39,9.39,0,0,1-2.43,8.55A8.21,8.21,0,0,1-1778,1167.74Zm-22.69-46.54a12.15,12.15,0,0,0-1.34.07c-4.92.55-9.14,4.74-9.21,9.16,0,3,1.53,5.86,3.15,8.51a141,141,0,0,0,13.22,18.21,23.1,23.1,0,0,0,2.77,2.86,25.53,25.53,0,0,0,6.46,3.46c3.65,1.53,8.84,3.24,11.83.5,1.81-1.66,2.08-4.42,1.72-6.45h0a23.43,23.43,0,0,0-3-7.09l-7.11-12.77-6.75-11A16.77,16.77,0,0,0-1800.67,1121.2Z" transform="translate(1896.11 -985.21)"/>
      </g>
      <g>
        <path class="cls-3" d="M-1644.27,1102.68a75.66,75.66,0,0,1-75.66,75.66c-30.11,0-51.24-21.52-63.42-47-2.36-4.93-7.14-8.8-10.33-11.69a75.9,75.9,0,0,1-1.91-17,75.66,75.66,0,0,1,75.66-75.66A75.66,75.66,0,0,1-1644.27,1102.68Z" transform="translate(1896.11 -985.21)"/>
        <path class="cls-2" d="M-1719.93,1179.49c-15.57,0-44.64-6.19-64.46-47.64-2-4.14-5.8-7.53-8.86-10.26l-1.19-1.07-0.27-.24-0.08-.35a77.24,77.24,0,0,1-1.94-17.24,76.9,76.9,0,0,1,76.81-76.81,76.9,76.9,0,0,1,76.81,76.81A76.9,76.9,0,0,1-1719.93,1179.49Zm-72.7-60.44,0.91,0.81c3.22,2.86,7.23,6.43,9.41,11,19.27,40.31,47.35,46.33,62.37,46.33a74.59,74.59,0,0,0,74.5-74.5,74.59,74.59,0,0,0-74.5-74.5,74.59,74.59,0,0,0-74.5,74.5A74.94,74.94,0,0,0-1792.62,1119.05Z" transform="translate(1896.11 -985.21)"/>
      </g>
      <path class="cls-5" d="M-1677.2,1076.54c8.29,3.23,15.45,8.76,22.38,14.34-1.29-5.43-2.68-11.07-6.22-15.38-3.41-4.15-8.44-6.58-13.39-8.68-5.72-2.42-11.89-4.6-18-3.58-3.32.56-16.67,9.64-9.09,12.29,2.53,0.88,8.63-1.72,11.69-1.64A37.66,37.66,0,0,1-1677.2,1076.54Z" transform="translate(1896.11 -985.21)"/>
      <path class="cls-2" d="M-1705.45,1085.21c9.2-10.45,9-27.6.27-38.46s-24.63-14.89-37.83-10.45c-8,2.69-13.68,4-21.54,7.15-3.33,1.33-8.11,6.31-10.94,8.51a24,24,0,0,0-5.1,6.1c-5.09,7.85-16.86,24-13.66,45.64C-1793.15,1111.14-1713.11,1093.91-1705.45,1085.21Z" transform="translate(1896.11 -985.21)"/>
      <g>
        <path class="cls-1" d="M-1753.84,1015.15a105.89,105.89,0,0,1-28.74,19.58c-1.36.63-2.92,1.45-3.18,2.92-0.31,1.76,1.41,3.18,3,4a27.76,27.76,0,0,0,18.2,1.82,43.51,43.51,0,0,0,16.63-8.12" transform="translate(1896.11 -985.21)"/>
        <path class="cls-2" d="M-1771.24,1045.35a27.08,27.08,0,0,1-12-2.69c-2.63-1.3-4-3.25-3.64-5.22,0.39-2.18,2.63-3.21,3.83-3.77a104.27,104.27,0,0,0,28.42-19.36l1.6,1.67a106.58,106.58,0,0,1-29.05,19.79c-1.14.52-2.36,1.16-2.53,2.08s1.11,2.11,2.39,2.74a26.52,26.52,0,0,0,17.44,1.73,42.2,42.2,0,0,0,16.18-7.91l1.4,1.84a44.47,44.47,0,0,1-17.07,8.32A32.07,32.07,0,0,1-1771.24,1045.35Z" transform="translate(1896.11 -985.21)"/>
      </g>
      <path class="cls-2" d="M-1646.61,1121.41c-9.89-13.67-28.78-17.87-45.56-16s-32.66,8.51-49.14,12.26a138.57,138.57,0,0,1-51.46,2.42c3.34,5.6,4.76,5.95,9.43,11.31,18.55,21.29,33.3,47,63.42,47A75.69,75.69,0,0,0-1646.61,1121.41Z" transform="translate(1896.11 -985.21)"/>
      <g>
        <path class="cls-3" d="M-1726,1142.45c13.48,0.46,26.7-2.27,39.85,1.11a34.76,34.76,0,0,1,10.28,4c8.6,5.55,10.06,16.35,8.64,25.35-2.28,14.36-9.62,27.4-17.55,39.77a263.18,263.18,0,0,1-20.62,28.36c-5.84,6.89-12.54,13.65-21.65,16.83-5.76,2-12.17,2.47-18.5,2.19-18.85-.83-39-9.4-47.34-24.87-3.65-6.79-13.74-65.93,1.38-100.24,4.81-10.91,23.3,10.73,39.4,7.55C-1735.06,1139.09-1743.06,1141.87-1726,1142.45Z" transform="translate(1896.11 -985.21)"/>
        <path class="cls-2" d="M-1742.31,1261.26q-1.63,0-3.35-.08c-21.54-.95-40.51-10.95-48.31-25.47-4.09-7.62-13.68-67.16,1.34-101.25a6,6,0,0,1,3.42-3.44c3.64-1.3,8.68,1.25,14.52,4.2,7,3.55,15,7.56,22.3,6.12,10.64-2.1,11.85-1.86,15.09-1.21a61,61,0,0,0,11.31,1.17c4.59,0.16,9.24-.06,13.73-0.28,8.64-.41,17.57-0.84,26.37,1.43a36.18,36.18,0,0,1,10.62,4.11c3.64,2.35,11.82,9.64,9.15,26.5-2.33,14.68-9.89,28-17.72,40.22a261,261,0,0,1-20.72,28.48c-5.9,7-12.67,13.86-22.15,17.17A47,47,0,0,1-1742.31,1261.26ZM-1787.06,1133a4.06,4.06,0,0,0-1.38.22,3.71,3.71,0,0,0-2.09,2.2c-15.32,34.76-4.53,93.42-1.42,99.22,7.42,13.82,25.63,23.35,46.37,24.26,7.17,0.31,13.08-.38,18.07-2.12,9-3.13,15.46-9.77,21.15-16.49a258.89,258.89,0,0,0,20.53-28.24c7.69-12,15.12-25.07,17.38-39.33,0.82-5.17,1.67-17.88-8.12-24.19a33.69,33.69,0,0,0-9.94-3.81c-8.46-2.18-16.82-1.78-25.68-1.36-4.54.22-9.23,0.44-13.92,0.28h0a63,63,0,0,1-11.68-1.21c-3-.6-4-0.8-14.19,1.21-8.11,1.6-16.44-2.61-23.79-6.32C-1780.1,1135.08-1784.25,1133-1787.06,1133Z" transform="translate(1896.11 -985.21)"/>
      </g>
      <path class="cls-5" d="M-1724.59,1184a14.79,14.79,0,0,0,12,5.29,8.78,8.78,0,0,0,5.1-1.7c1-.77,1.79-1.87,3-2a4.8,4.8,0,0,1,1.71.3,15.63,15.63,0,0,0,4.53.59,1.83,1.83,0,0,0,.91-0.18,2,2,0,0,0,.66-0.86l3.44-6.86a13.93,13.93,0,0,1-13-1.46c-0.39,3.22-3.37,5.69-6.55,6.35s-6.48-.15-9.51-1.33c-3.25-1.27-2.61-5.1-5.38-6.25C-1728,1178.61-1726.33,1181.84-1724.59,1184Z" transform="translate(1896.11 -985.21)"/>
      <path class="cls-2" d="M-1696,1180.48c-9.95,20.13-23.86,38.24-37.76,56.17-1.49,1.92-3,3.91-3.56,6.23s0.13,5.08,2.27,6.37,5.13,0.7,7.57-.21c12.77-4.76,21.79-15.45,29.6-26.05q9.23-12.51,17.39-25.69c3-4.8,5.92-10.05,5.32-15.59s-6.45-10.89-12.07-9.16" transform="translate(1896.11 -985.21)"/>
      <path class="cls-2" d="M-1785.18,1142c13,5.18,26.21,10,40,11.75a96.55,96.55,0,0,0,56.3-9.9c1.63-.84,3.47-2.12,3.39-4s-2-2.92-3.74-3.47c-7.56-2.42-15.74-.88-23.61.19a191.08,191.08,0,0,1-49.64.22c-7.52-1-15.29-3.75-22.79-4.12C-1793.32,1132.28-1791.06,1139.61-1785.18,1142Z" transform="translate(1896.11 -985.21)"/>
      <g>
        <path class="cls-4" d="M-1698.69,1144.93a126,126,0,0,1,33.35-16c2.35-.73,4.85-1.46,6.5-3.31a12.21,12.21,0,0,0,2.29-4.78,69.18,69.18,0,0,0-1.41-43.16c-3.14-8.5-21.79-13.4-29.56-17.85-4.16-2.39,4.63-6.84.4-9.1A30.74,30.74,0,0,1-1701,1035a35.87,35.87,0,0,1-35.37-.63,23.86,23.86,0,0,1-21.45,12.91,9.61,9.61,0,0,1-4.91-1.23c-3.15-2-3.86-6.33-3.71-10.11,0.76-19.33,16-35.7,33.76-42.66,25.86-10.18,60.6-2.65,80.71,15s59.3,140.13-28.4,166.89c-5.33,1.68-10.79,3.34-16.37,3.22s-11.41-2.27-14.68-6.88-3.08-11.87,1.3-15.39" transform="translate(1896.11 -985.21)"/>
        <path class="cls-2" d="M-1696.27,1179.49h-0.55c-6.59-.13-12.42-2.88-15.6-7.36-3.79-5.34-3.08-13.27,1.52-17l1.45,1.8c-4.09,3.28-3.86,9.92-1.09,13.82s7.9,6.27,13.76,6.39c5.61,0.11,11.37-1.71,16-3.17,28-8.54,45.3-27.47,51.49-56.28,9.74-45.34-11.8-98.38-23.5-108.63-20.68-18.11-54.87-24.46-79.52-14.76-22,8.67-32.46,27.15-33,41.63-0.1,2.58.18,7.19,3.17,9.09a8.39,8.39,0,0,0,4.32,1,22.6,22.6,0,0,0,20.38-12.28l0.56-1.11,1.07,0.64a34.63,34.63,0,0,0,34.21.61l1.15-.64,0.48,1.23a29.72,29.72,0,0,0,13.4,15.14,3.14,3.14,0,0,1,1.71,2c0.36,1.47-.57,2.85-1.48,4.18-0.54.8-1.29,1.9-1.17,2.4a1.13,1.13,0,0,0,.56.55,88,88,0,0,0,8.71,4c8.89,3.73,19,8,21.36,14.47a70.14,70.14,0,0,1,1.44,43.88,13.29,13.29,0,0,1-2.54,5.22c-1.82,2-4.49,2.87-6.84,3.59l-0.18.06a124.49,124.49,0,0,0-33,15.88l-1.29-1.91a126.82,126.82,0,0,1,33.66-16.17l0.18-.06c2.17-.67,4.4-1.36,5.8-2.92a11.35,11.35,0,0,0,2-4.34,67.81,67.81,0,0,0-1.39-42.43c-2.05-5.57-12.06-9.76-20.09-13.13a89.1,89.1,0,0,1-9-4.11,3.19,3.19,0,0,1-1.66-2c-0.35-1.49.6-2.88,1.51-4.22,0.53-.79,1.26-1.86,1.15-2.33a1.16,1.16,0,0,0-.56-0.51,32.07,32.07,0,0,1-14-15.13,37.06,37.06,0,0,1-34.34-.65,25,25,0,0,1-21.93,12.47,10.84,10.84,0,0,1-5.49-1.4c-3.78-2.39-4.39-7.37-4.25-11.13,0.6-15.23,11.49-34.65,34.49-43.69,25.4-10,60.61-3.47,81.89,15.17,13.84,12.13,33.6,67.28,24.24,110.86-6.38,29.69-24.23,49.21-53.07,58C-1684.72,1177.68-1690.48,1179.49-1696.27,1179.49Z" transform="translate(1896.11 -985.21)"/>
      </g>
      <g>
        <path class="cls-4" d="M-1701.83,1148.43a36.22,36.22,0,0,1,22.64-25,36.22,36.22,0,0,1,33.36,5.14" transform="translate(1896.11 -985.21)"/>
        <path class="cls-2" d="M-1700.71,1148.71l-2.24-.55a37.62,37.62,0,0,1,23.37-25.84,37.62,37.62,0,0,1,34.44,5.31l-1.39,1.84a35.25,35.25,0,0,0-32.27-5A35.25,35.25,0,0,0-1700.71,1148.71Z" transform="translate(1896.11 -985.21)"/>
      </g>
      <g>
        <path class="cls-1" d="M-1600.68,1004.48c-1.82-2.06-5.09-1.5-7.78-1-7.85,1.59-15.92,1.59-23.92,1.58l-24.56,0-5.54-.12a4.53,4.53,0,0,0-2.29-.35,1.56,1.56,0,0,0-1.33,1.64,2.23,2.23,0,0,0,.48.89,74.26,74.26,0,0,0,18.13,16.89,41.5,41.5,0,0,0,15,6.55,29.5,29.5,0,0,0,30.58-14.71,19.86,19.86,0,0,0,2.26-6.55A6,6,0,0,0-1600.68,1004.48Z" transform="translate(1896.11 -985.21)"/>
        <path class="cls-2" d="M-1627.57,1032.19a28.06,28.06,0,0,1-5.15-.47c-4.86-.91-9.9-3.1-15.39-6.72a75.07,75.07,0,0,1-18.42-17.15,3.29,3.29,0,0,1-.7-1.38,2.71,2.71,0,0,1,2.24-3,5.31,5.31,0,0,1,2.71.33l5.36,0.12,24.53,0c7.83,0,15.93,0,23.69-1.56,2.44-.5,6.53-1.32,8.87,1.32h0c1.18,1.33,1.62,3.33,1.28,5.77a20.76,20.76,0,0,1-2.38,6.94A30.63,30.63,0,0,1-1627.57,1032.19Zm-36.71-26.47-0.26,0a0.61,0.61,0,0,0-.42.31,2.82,2.82,0,0,0,.27.39,72.77,72.77,0,0,0,17.85,16.63c5.23,3.44,10,5.53,14.54,6.38,11.32,2.11,23.93-4,29.35-14.12a18.51,18.51,0,0,0,2.13-6.17c0.17-1.22.18-2.89-.73-3.92h0c-1.34-1.52-4-1.13-6.68-.59-8,1.62-16.21,1.62-24.15,1.61l-24.54,0-5.93-.18A4.91,4.91,0,0,0-1664.27,1005.72Z" transform="translate(1896.11 -985.21)"/>
      </g>
      <circle class="cls-2" cx="143.63" cy="40.08" r="4.56"/>
      <circle class="cls-2" cx="190.31" cy="29.09" r="3.96"/>
      <path class="cls-2" d="M-1727.68,1020.76c-0.48-1.09-6.95,0-10.1,1.48a6,6,0,0,0-3.37,2.93,1.14,1.14,0,0,0-.09.63,1.29,1.29,0,0,0,.43.63c2,1.93,6.09,3.43,8.83,2.12a7.33,7.33,0,0,0,2.48-2.6C-1729.23,1025.55-1727.2,1021.85-1727.68,1020.76Z" transform="translate(1896.11 -985.21)"/>
      <g>
        <path class="cls-4" d="M-1764.35,1051.58c-0.58-2-4-4.12-4-4.12s-1.72-1.68-6.64-.15-8.45,8.77-6.49,14.19a7.72,7.72,0,0,0,2.1,3.24c2,1.75,5,1.92,7.56,1.09A12,12,0,0,0-1764.35,1051.58Z" transform="translate(1896.11 -985.21)"/>
        <path class="cls-2" d="M-1774.79,1067.46a8.14,8.14,0,0,1-5.37-1.85,8.78,8.78,0,0,1-2.43-3.72,12.55,12.55,0,0,1,.85-9.75,11.22,11.22,0,0,1,6.38-5.94c4.9-1.52,7.12-.12,7.67.32s3.79,2.52,4.44,4.72a13.09,13.09,0,0,1-8.24,15.68A10.74,10.74,0,0,1-1774.79,1067.46Zm3.5-19.64a11.5,11.5,0,0,0-3.38.59,9.05,9.05,0,0,0-5,4.76,10.38,10.38,0,0,0-.75,7.94,6.52,6.52,0,0,0,1.77,2.76c1.83,1.59,4.53,1.49,6.45.87a10.84,10.84,0,0,0,6.74-12.82h0c-0.35-1.16-2.53-2.84-3.53-3.47l-0.19-.15h0A3.71,3.71,0,0,0-1771.29,1047.82Z" transform="translate(1896.11 -985.21)"/>
      </g>
      <path class="cls-6" d="M-1724.83,1064.45q-0.4-2.63-1-5.22a3.09,3.09,0,0,0-.38-1c-0.64-1-2-.94-3.18-0.77-6.22.93-28.45,6-19.73,15.54A31.76,31.76,0,0,1-1724.83,1064.45Z" transform="translate(1896.11 -985.21)"/>
      <g>
        <path class="cls-4" d="M-1700.8,1137.92c-1.74-4.54-4.41-8.89-8.44-11.62s-9.56-3.56-13.8-1.17c-5.55,3.12-7.21,10.45-6.59,16.79s2.9,12.48,2.91,18.85c0,4.46-1.11,8.95-.36,13.35s4.32,8.87,8.76,8.4c0,0,7.74,1.07,11.83-5.27A41.52,41.52,0,0,0-1700.8,1137.92Z" transform="translate(1896.11 -985.21)"/>
        <path class="cls-2" d="M-1717,1183.73a13,13,0,0,1-1.37-.07c-5.07.44-9.06-4.49-9.89-9.37a33,33,0,0,1,0-8.6c0.15-1.63.31-3.31,0.31-4.94a51.59,51.59,0,0,0-1.5-10.61,73.79,73.79,0,0,1-1.4-8.12c-0.62-6.36.95-14.4,7.18-17.91,4.32-2.43,10.36-1.94,15,1.22,3.77,2.56,6.76,6.66,8.87,12.17h0a42.73,42.73,0,0,1-5.86,40.43C-1708.87,1183.05-1714.32,1183.73-1717,1183.73Zm-1.34-2.39,0.14,0c0.28,0,7.08.87,10.7-4.75a40.43,40.43,0,0,0,5.59-38.28c-1.94-5.06-4.63-8.79-8-11.08-4-2.68-9-3.13-12.59-1.12-5.26,3-6.56,10-6,15.67a72.16,72.16,0,0,0,1.36,7.87,54.1,54.1,0,0,1,1.55,11.09c0,1.73-.16,3.47-0.31,5.15a30.75,30.75,0,0,0-.06,8c0.66,3.91,3.84,7.83,7.5,7.44Z" transform="translate(1896.11 -985.21)"/>
      </g>
      <g>
        <path class="cls-4" d="M-1648.95,1092.55c-6.16-10.8-16.75-27.4-40.82-28-5.49-.47-10.91,1.18-16.22,2.66s-10.89,2.8-16.28,1.68-10.53-5.39-10.85-10.89,4.11-10.21,8.73-13.29c13.38-8.92,39.76-9.53,54.55-3.23" transform="translate(1896.11 -985.21)"/>
        <path class="cls-2" d="M-1650,1093.12c-5-8.7-15.28-26.8-39.84-27.37-5-.42-10,1-14.87,2.34l-1,.28c-5.41,1.5-11.17,2.88-16.83,1.7s-11.4-5.63-11.77-12c-0.39-6.83,5.62-11.91,9.24-14.32,14.16-9.44,41.05-9.55,55.65-3.33l-0.91,2.12c-13.77-5.86-40.12-5.78-53.46,3.13-3.21,2.14-8.54,6.58-8.21,12.27,0.3,5.11,5.34,8.87,9.93,9.83,5.15,1.07,10.6-.23,15.74-1.66l1-.28c5-1.41,10.27-2.87,15.62-2.42,25.8,0.59,36.55,19.46,41.72,28.53Z" transform="translate(1896.11 -985.21)"/>
      </g>
      <g>
        <path class="cls-3" d="M-1683.65,1216a96.28,96.28,0,0,1-8.34,36.62c-0.82,1.84-1.72,3.91-1,5.8,0.91,2.47,4.24,3.27,6.68,2.31s4.17-3.14,5.7-5.28c16.76-23.49,24.64-53.47,24.73-82.14,0-10.55-2.49-20.24-13.5-24.11-11.21-3.94-15.7,3.31-16.68,13.58C-1687.79,1180.53-1683.17,1198.21-1683.65,1216Z" transform="translate(1896.11 -985.21)"/>
        <path class="cls-2" d="M-1688.47,1262.27a7,7,0,0,1-2.84-.59,5.13,5.13,0,0,1-2.78-2.87c-0.87-2.37.2-4.75,1.05-6.67a95.68,95.68,0,0,0,8.24-36.18h0a186.63,186.63,0,0,0-1.38-23.63c-1-9.7-2-19.72-1-29.67,0.68-7.07,2.86-11.82,6.48-14.14,3-1.94,7-2.08,11.73-.42,12.85,4.51,14.3,16.54,14.27,25.2-0.09,31-9,60.4-24.94,82.81-1.56,2.18-3.45,4.6-6.21,5.69A7,7,0,0,1-1688.47,1262.27Zm6-46.26a98,98,0,0,1-8.44,37.06c-0.72,1.61-1.54,3.44-1,4.93a2.84,2.84,0,0,0,1.56,1.56,4.81,4.81,0,0,0,3.61.07c2.18-.85,3.75-2.88,5.18-4.88,15.71-22,24.42-51,24.51-81.48,0-12.81-3.89-19.91-12.73-23-4-1.42-7.31-1.36-9.72.18-3,1.89-4.83,6.18-5.42,12.42-0.93,9.72.08,19.63,1,29.22a188.26,188.26,0,0,1,1.4,23.92h0Z" transform="translate(1896.11 -985.21)"/>
      </g>
      <path class="cls-2" d="M-1745.61,1260a56.32,56.32,0,0,0,14-.94,11.13,11.13,0,0,1-5.24-3.47c-2.43-2.85-3.68-6.5-5.36-9.85-8.48-16.89-29.91-26-48-20.43-2,.62-4.35,2.14-3.8,4.15l-0.34,1.71a21.13,21.13,0,0,0,1.37,4C-1784.65,1250.63-1764.46,1259.2-1745.61,1260Z" transform="translate(1896.11 -985.21)"/>
      <g>
        <path class="cls-7" d="M-1783,1173.83c6.4-12.58,14.94-14.55,19.91-13.88s9.7,3.89,11.46,8.58a17.07,17.07,0,0,1,.92,6.19,30.1,30.1,0,0,1-15.22,25.49c-3.65,2-13.41,4.39-16.26-4.55" transform="translate(1896.11 -985.21)"/>
        <path class="cls-8" d="M-1773.35,1202.67a11,11,0,0,1-4.07-.73,9.13,9.13,0,0,1-5.34-6.1l1.1-.35a8,8,0,0,0,4.67,5.38c3.7,1.47,8.46.11,10.76-1.16a29.35,29.35,0,0,0,14.93-25,16.42,16.42,0,0,0-.89-6c-1.59-4.23-6-7.53-11-8.21-2.72-.37-12.17-0.49-19.31,13.57l-1-.52c7.49-14.73,17.59-14.58,20.5-14.19,5.48,0.75,10.16,4.26,11.92,9a17.54,17.54,0,0,1,1,6.4,30.52,30.52,0,0,1-15.52,26A17.15,17.15,0,0,1-1773.35,1202.67Z" transform="translate(1896.11 -985.21)"/>
      </g>
      <polygon class="cls-2" points="129.24 198.89 132.98 200.05 139.63 183.88 134.26 182.72 129.24 198.89"/>
      <polygon class="cls-2" points="127.47 181.39 122.56 197.65 120.09 191.68 122.87 181.39 127.47 181.39"/>
      <g>
        <path class="cls-1" d="M-1782.21,1186.59l14.39-3.12a6.21,6.21,0,0,0,3.24-1.36,2.94,2.94,0,0,0,.61-2.06,19.29,19.29,0,0,0-1.05-6.4,1.94,1.94,0,0,0-.41-0.77,2.64,2.64,0,0,0-1.5-.62,11.34,11.34,0,0,0-4.11.43q-8.13,1.9-16.16,4" transform="translate(1896.11 -985.21)"/>
        <path class="cls-2" d="M-1782,1187.72l-0.49-2.26,14.39-3.12a5.77,5.77,0,0,0,2.62-1,1.89,1.89,0,0,0,.31-1.3,18.14,18.14,0,0,0-1-6,1.29,1.29,0,0,0-.15-0.34,1.67,1.67,0,0,0-.84-0.28,10.21,10.21,0,0,0-3.69.41c-5.39,1.26-10.82,2.61-16.13,4l-0.59-2.23c5.34-1.41,10.79-2.76,16.19-4a12.39,12.39,0,0,1,4.54-.45,3.65,3.65,0,0,1,2.17,1,3,3,0,0,1,.67,1.19,20.44,20.44,0,0,1,1.11,6.78,4.09,4.09,0,0,1-.9,2.83,7,7,0,0,1-3.85,1.71Z" transform="translate(1896.11 -985.21)"/>
      </g>
      <g>
        <path class="cls-1" d="M-1789,1175.78l8.32-1.55a3.11,3.11,0,0,0,1.92-.85,2.88,2.88,0,0,0,.5-1.54,19.85,19.85,0,0,0-.08-5,1.72,1.72,0,0,0-.17-0.61,1.32,1.32,0,0,0-.79-0.56,4.78,4.78,0,0,0-2.34.09q-4.71,1-9.38,2.13" transform="translate(1896.11 -985.21)"/>
        <path class="cls-2" d="M-1788.76,1176.92l-0.42-2.27,8.32-1.55a2.49,2.49,0,0,0,1.24-.45,2.17,2.17,0,0,0,.25-0.94,18.68,18.68,0,0,0-.08-4.67s0-.14,0-0.2a0.37,0.37,0,0,1-.12,0,3.88,3.88,0,0,0-1.77.11c-3.12.65-6.26,1.36-9.34,2.13l-0.55-2.24c3.11-.77,6.28-1.49,9.43-2.14a5.85,5.85,0,0,1,2.91-.06,2.43,2.43,0,0,1,1.47,1.1,2.77,2.77,0,0,1,.31,1,21,21,0,0,1,.09,5.25,3.9,3.9,0,0,1-.76,2.15,4.19,4.19,0,0,1-2.6,1.25Z" transform="translate(1896.11 -985.21)"/>
      </g>
      <g>
        <path class="cls-1" d="M-1823.07,1176.84c-2.83,2.95-5.2,6.31-8,9.32-9,9.75-15.24,12-28.49,11.65-7.5-.17-17.61-7.14-21.18-17-18.68-51.88,33.57-68.62,70.25-55.82a10.57,10.57,0,0,1,7.76-4.74c-25.56-9.88-94.94-17.54-89.66,52,0.85,11.14,12.36,27.2,22.72,31.37,9.67,3.9,18.84,3.89,29.83,1.15,17.92-4.48,50.61,10.25,54.17,1a40.67,40.67,0,0,0-2-36.69C-1796.94,1153.37-1814.13,1167.56-1823.07,1176.84Z" transform="translate(1896.11 -985.21)"/>
        <path class="cls-2" d="M-1792.92,1210c-4.4,0-10.17-1.05-16.62-2.23-10.22-1.87-21.81-4-30-1.94-11.93,3-21.06,2.62-30.54-1.2-10.72-4.32-22.55-20.65-23.44-32.36-1.72-22.64,4.22-39.18,17.64-49.15,9.51-7.07,22.91-10.69,38.68-10.44a106.62,106.62,0,0,1,34.9,6.43l4,1.53-4.19.69a9.42,9.42,0,0,0-7,4.29l-0.51.68-0.8-.28c-22.93-8-49.37-3.92-62.85,9.7-10.56,10.66-12.61,26.1-5.93,44.65,3.43,9.53,13.17,16.11,20.12,16.27,13.39,0.3,19.08-2,27.61-11.28,1.25-1.36,2.45-2.83,3.61-4.26,1.38-1.7,2.81-3.45,4.37-5.08h0c7.19-7.47,17.7-16.14,26.86-15.08,4.23,0.49,7.71,3,10.35,7.49a41.74,41.74,0,0,1,2.11,37.75C-1785.67,1209-1788.65,1210-1792.92,1210Zm-38.74-7.31c7.14,0,15.18,1.47,22.53,2.81,10.74,2,20.88,3.81,22.42-.2a39.43,39.43,0,0,0-2-35.69c-2.26-3.82-5.16-6-8.63-6.37-8.67-1-19.34,8.58-24.93,14.38h0c-1.49,1.55-2.89,3.27-4.25,4.93-1.18,1.45-2.4,3-3.7,4.36-9,9.77-15.31,12.37-29.37,12-7.68-.18-18.36-7-22.24-17.8-8.84-24.56-1.36-39.14,6.47-47.05,13.92-14.06,40.91-18.43,64.46-10.52a11.34,11.34,0,0,1,4.37-3.51,106.87,106.87,0,0,0-30.72-5.06c-10.65-.15-25.77,1.45-37.27,10-12.75,9.47-18.37,25.32-16.72,47.12,0.82,10.79,12.13,26.41,22,30.39,9,3.62,17.7,4,29.12,1.1A35,35,0,0,1-1831.66,1202.71Z" transform="translate(1896.11 -985.21)"/>
      </g>
      <polygon class="cls-2" points="124.88 205.47 123.56 210.45 119.49 209.72 120.59 204.94 124.88 205.47"/>
      <path class="cls-3" d="M-1777.42,1147.54s-1.09-.55-3-1.63c-0.95-.54-2.09-1.21-3.37-2.05a30.12,30.12,0,0,1-4.13-3.18,10.93,10.93,0,0,1-2-2.46,4.85,4.85,0,0,1-.6-1.82,3.32,3.32,0,0,1,.51-2.13,6,6,0,0,1,3.17-2.16,17.21,17.21,0,0,1,3.51-.75,35.82,35.82,0,0,1,7.28,0,40.15,40.15,0,0,1,7.36,1.33c2.41,0.74,4.69,1.61,7,2.5l6.6,2.66c2.13,0.87,4.2,1.69,6.17,2.42s3.86,1.37,5.61,1.91,3.39,0.95,4.85,1.28,2.74,0.54,3.81.66,1.91,0.21,2.48.26l0.88,0.07-0.88,0c-0.58,0-1.42,0-2.49-.16s-2.37-.27-3.85-0.51-3.14-.61-4.93-1.08-3.72-1-5.73-1.69-4.12-1.39-6.29-2.17l-6.69-2.38c-1.14-.4-2.29-0.77-3.44-1.15s-2.35-.73-3.49-1a38.48,38.48,0,0,0-7.07-1.15,34,34,0,0,0-6.9.15,15.36,15.36,0,0,0-3.1.72,4.23,4.23,0,0,0-2.13,1.4,1.76,1.76,0,0,0,.19,1.88,9,9,0,0,0,1.66,1.94,28.11,28.11,0,0,0,3.88,2.88c1.24,0.78,2.36,1.41,3.29,1.92,1.85,1,3,1.54,3,1.54Z" transform="translate(1896.11 -985.21)"/>
      <path class="cls-9" d="M-1792.32,1185.45a1.87,1.87,0,0,1-.23,1.21,1.84,1.84,0,0,1-1.34.57c-1.32.14-2.66,0.07-4,.11-5.85.18-11.41,2.44-16.81,4.7a20.43,20.43,0,0,1-4.25,1.42,1.25,1.25,0,0,1-.78,0,0.9,0.9,0,0,1-.38-1,2.64,2.64,0,0,1,.57-1,54.32,54.32,0,0,1,7.79-8.54,54.32,54.32,0,0,1,9.87-6c2.1-1.08,5-2.9,6.75-.44A17.54,17.54,0,0,1-1792.32,1185.45Z" transform="translate(1896.11 -985.21)"/>
      <ellipse class="cls-6" cx="-1776.02" cy="1082.35" rx="6.19" ry="5.01" transform="translate(-555.84 -1869.79) rotate(-77.61)"/>
      <g>
        <g>
          <path class="cls-10" d="M-1794.26,1251a6.07,6.07,0,0,0-.16,2.43c0.29,3.4,9.51,9.38,19,12.52s22.38,3.18,23.85,1.67a10.21,10.21,0,0,0,1.82-3.06l2.67-6c1.21-2.73,1.24-2.25,1.55-5.22,0.79-7.66-4.75-14.69-11.27-18.79-6.71-4.22-19.9-8.8-27.76-5.14C-1791.85,1232.77-1792.5,1243.93-1794.26,1251Z" transform="translate(1896.11 -985.21)"/>
          <path class="cls-2" d="M-1758,1269.18a61.38,61.38,0,0,1-17.66-2.67c-8.88-3-19-9-19.34-13a6.72,6.72,0,0,1,.18-2.61h0c0.33-1.34.62-2.82,0.93-4.39,1.29-6.57,2.91-14.75,9-17.61,8-3.7,21.34.8,28.31,5.18,6.15,3.86,12.41,11,11.54,19.34a9.24,9.24,0,0,1-1,4.17c-0.15.33-.34,0.72-0.56,1.23l-2.67,6a10.78,10.78,0,0,1-1.93,3.23C-1751.95,1268.8-1754.56,1269.18-1758,1269.18Zm-35.71-18a5.45,5.45,0,0,0-.16,2.17c0.24,2.85,8.4,8.7,18.57,12.09,9.5,3.16,22.1,3,23.25,1.81a9.75,9.75,0,0,0,1.71-2.9l2.67-6c0.23-.51.42-0.91,0.57-1.25a8.18,8.18,0,0,0,.93-3.8c0.81-7.84-5.15-14.56-11-18.24-6.75-4.24-19.65-8.63-27.21-5.11-5.59,2.6-7.07,10.14-8.38,16.78-0.31,1.58-.61,3.08-0.95,4.44h0Z" transform="translate(1896.11 -985.21)"/>
        </g>
        <g>
          <path class="cls-6" d="M-1791.68,1252.87c2.89-.13,5.73.85,8.49,1.87,10,3.7,18.37,4.13,27.8,9.46,1.09,0.61,2.78,1.73,2.46,2.89s-11,.33-17.85-1.17a62.44,62.44,0,0,1-17.47-7.34C-1789.32,1257.94-1795.69,1253-1791.68,1252.87Z" transform="translate(1896.11 -985.21)"/>
          <path class="cls-11" d="M-1756.07,1268.22c-0.89,0-2,0-3.38-.14a85.89,85.89,0,0,1-11.45-1.59c-7.58-1.66-14.86-5.73-17.64-7.41-0.06,0-5.5-3.69-5-5.73,0.17-.65.78-1,1.83-1.05h0c3-.13,5.81.83,8.72,1.91a109.73,109.73,0,0,0,10.83,3.25c5.74,1.5,11.16,2.92,17.05,6.25,0.79,0.45,3.21,1.82,2.73,3.54C-1752.48,1267.61-1752.65,1268.22-1756.07,1268.22Zm-35.58-14.77a1.19,1.19,0,0,0-.76.18c-0.27.62,2.83,3.48,4.46,4.46,2.73,1.64,9.88,5.64,17.29,7.27,7.13,1.56,15.93,2,17.18,1.47,0-.33-0.27-1-2.2-2.12-5.76-3.26-11.11-4.66-16.77-6.14a110.78,110.78,0,0,1-10.94-3.28c-2.79-1-5.53-2-8.26-1.84h0Z" transform="translate(1896.11 -985.21)"/>
        </g>
        <path class="cls-12" d="M-1775.6,1228.83a20.79,20.79,0,0,0-6.31.34c-1.47,3.49-3.89,9.88-3.87,9.89l2.25,0.61a0.6,0.6,0,0,1,.47.32,0.59,0.59,0,0,1-.08.4l-3.06,6.78,3.45,1.6c-0.91,2-.62.7-1.53,2.68a33.88,33.88,0,0,0,5.47,1.86c1.32-2,1.21-.94,2.05-3.21a6.7,6.7,0,0,0-3.87-1.72,57.49,57.49,0,0,1,3.53-8.14,16.14,16.14,0,0,1-3.66-1.78c1.5-2.61,4.18-5.8,5-8.69A4.51,4.51,0,0,0-1775.6,1228.83Z" transform="translate(1896.11 -985.21)"/>
        <g>
          <path class="cls-6" d="M-1787.19,1256.73l-4.61,10.11a1.52,1.52,0,0,0-.2,1,1.48,1.48,0,0,0,.6.69,11,11,0,0,0,5.67,2.44,1.28,1.28,0,0,0,.85-0.17,1.4,1.4,0,0,0,.4-0.64l4.06-10.37" transform="translate(1896.11 -985.21)"/>
          <path class="cls-2" d="M-1787.19,1256.73s-0.48,2-1.49,4.85c-0.49,1.43-1.11,3.09-1.82,4.83l-0.27.66a3.13,3.13,0,0,0-.19.52c0,0.12,0,0,0-.09s0,0,.2.14a15.24,15.24,0,0,0,2.39,1.43,7.53,7.53,0,0,0,2.47.79,3,3,0,0,0,.46,0,1,1,0,0,0-.13.13,2.22,2.22,0,0,0,.22-0.44l0.29-.65c0.76-1.73,1.52-3.32,2.21-4.67,1.36-2.71,2.45-4.44,2.45-4.44s-0.37,2-1.22,4.92c-0.41,1.46-.94,3.14-1.55,4.93l-0.23.67a4,4,0,0,1-.37.87,1.84,1.84,0,0,1-.6.59,2.06,2.06,0,0,1-.74.27,4.2,4.2,0,0,1-1,0,9.68,9.68,0,0,1-3.25-.93,17.49,17.49,0,0,1-2.71-1.72,2.7,2.7,0,0,1-.82-0.91,2,2,0,0,1-.1-1.51,5.08,5.08,0,0,1,.36-0.81l0.32-.64c0.86-1.68,1.7-3.23,2.46-4.54C-1788.38,1258.39-1787.19,1256.73-1787.19,1256.73Z" transform="translate(1896.11 -985.21)"/>
        </g>
        <g>
          <path class="cls-6" d="M-1772.17,1260.5l-5,11a1.66,1.66,0,0,0-.22,1.14,1.61,1.61,0,0,0,.66.75,12,12,0,0,0,6.19,2.66,1.39,1.39,0,0,0,.93-0.19,1.53,1.53,0,0,0,.44-0.7l4.43-11.31" transform="translate(1896.11 -985.21)"/>
          <path class="cls-2" d="M-1772.17,1260.5s-0.56,2.16-1.68,5.27c-0.55,1.56-1.23,3.36-2,5.26l-0.3.72a3.67,3.67,0,0,0-.21.58c0,0.14,0,0,0,0s0.05,0.06.25,0.19a16.75,16.75,0,0,0,2.62,1.58,8.32,8.32,0,0,0,2.73.87,3.07,3.07,0,0,0,.53,0c0.09,0-.12.09-0.07,0.09a2.69,2.69,0,0,0,.24-0.5l0.31-.71c0.83-1.89,1.64-3.63,2.38-5.11,1.46-3,2.62-4.87,2.62-4.87s-0.44,2.19-1.38,5.35c-0.46,1.59-1,3.42-1.72,5.37l-0.26.73a4.4,4.4,0,0,1-.4.93,1.91,1.91,0,0,1-.62.62,2.14,2.14,0,0,1-.77.28,4.48,4.48,0,0,1-1.08,0,10.46,10.46,0,0,1-3.51-1,19,19,0,0,1-2.94-1.87,2.85,2.85,0,0,1-.87-1,2.1,2.1,0,0,1-.11-1.58,5.55,5.55,0,0,1,.38-0.88l0.35-.7c0.93-1.84,1.84-3.53,2.66-5C-1773.43,1262.33-1772.17,1260.5-1772.17,1260.5Z" transform="translate(1896.11 -985.21)"/>
        </g>
      </g>
      <path class="cls-2" d="M-1792.21,1237.93l0.38-.08c0.25,0,.59-0.13,1.09-0.21a26.21,26.21,0,0,1,4-.38,33.06,33.06,0,0,1,5.6.39,41.11,41.11,0,0,1,6.2,1.49,59.45,59.45,0,0,1,5.88,2.28c1.83,0.82,3.51,1.65,4.94,2.38l4.72,2.49-4.87-2.16c-1.47-.63-3.19-1.34-5.06-2a58.48,58.48,0,0,0-5.94-1.85,39.75,39.75,0,0,0-6.06-1,31.27,31.27,0,0,0-5.31,0,24.17,24.17,0,0,0-3.65.59c-0.41.09-.78,0.21-1,0.27l-0.37.1Z" transform="translate(1896.11 -985.21)"/>
      <path class="cls-2" d="M-1793.5,1245.65s0.44-.12,1.48-0.26a17.56,17.56,0,0,1,4,0,30.12,30.12,0,0,1,5.35,1.11c1.89,0.55,3.86,1.22,5.82,2a97.8,97.8,0,0,1,10.47,4.62c2.77,1.43,4.55,2.49,4.55,2.49s-1.85-.93-4.71-2.16a97.07,97.07,0,0,0-10.68-3.85c-2-.58-4-1.11-5.85-1.52a28.35,28.35,0,0,0-5.1-.69,15.46,15.46,0,0,0-3.5.26c-0.38.08-.7,0.15-0.95,0.23l-0.36.1Z" transform="translate(1896.11 -985.21)"/>
    </g>
    <path class="cls-2" d="M-1707,988.67c18.35,0,37.35,6.11,51.11,16.41l23.52,0h1.44c7.53,0,15.11-.09,22.49-1.58a20.09,20.09,0,0,1,3.88-.5,4.93,4.93,0,0,1,3.9,1.46,6,6,0,0,1,1,4.84,19.86,19.86,0,0,1-2.26,6.55c-4.92,9.23-15.3,15.16-25.71,15.16a26.57,26.57,0,0,1-4.87-.45,33.06,33.06,0,0,1-6.91-2.15c12.06,27.53,21.47,74.91,4.45,109.44a62.29,62.29,0,0,0,1,30.31c2.89,10.4,7.31,22.64,3.17,33.25-2.51,6.42-5.39,9.48-12.12,10.95a16.79,16.79,0,0,1-3.58.4c-4.79,0-8.87-2.24-13.17-5.83-3.86,17.4-10.76,34.16-21,48.49-1.53,2.14-3.25,4.32-5.7,5.28a5.89,5.89,0,0,1-2.14.39,4.65,4.65,0,0,1-4.54-2.71c-0.7-1.89.2-4,1-5.8a96.29,96.29,0,0,0,8.34-36.62c0-1.73,0-3.46,0-5.18l-1.18,1.85a263.1,263.1,0,0,1-20.62,28.36c-5.84,6.89-12.54,13.65-21.65,16.83a36.43,36.43,0,0,1-4.52,1.25c-0.64.14-1.29,0.25-1.95,0.36l-0.76.11-1.36.18-0.77.09-1.74.15-0.38,0c-0.67,0-1.35.07-2,.08h-2.87c-0.71,0-1.41,0-2.12-.06h0c-0.7,0-1.41-.08-2.11-0.13l-2.07,4.67a10.22,10.22,0,0,1-1.82,3.06c-0.6.62-3.08,1-6.44,1a62.09,62.09,0,0,1-8.33-.6l-2.82,7.19a1.53,1.53,0,0,1-.44.7,1.19,1.19,0,0,1-.73.19h-0.2a12,12,0,0,1-6.19-2.66,1.61,1.61,0,0,1-.66-0.75,1.66,1.66,0,0,1,.22-1.14l2.44-5.34-0.7-.22a59.18,59.18,0,0,1-6.35-2.55l-2.65,6.78a1.41,1.41,0,0,1-.4.64,1.09,1.09,0,0,1-.67.18h-0.19a11,11,0,0,1-5.67-2.44,1.48,1.48,0,0,1-.6-0.69,1.52,1.52,0,0,1,.2-1l3.26-7.15c-3.43-2.28-5.74-4.57-5.88-6.25a6.07,6.07,0,0,1,.16-2.43c0.86-3.45,1.46-7.86,2.68-11.88l-0.35-.08,0.4-.09c0.1-.31.2-0.62,0.31-0.93q-0.93-1.39-1.73-2.87c-0.09-.17-0.19-0.38-0.28-0.61l0-.1c-0.09-.23-0.19-0.49-0.29-0.77l-0.06-.16c-0.1-.3-0.21-0.62-0.31-1l0-.12a151.15,151.15,0,0,1-4.24-23.94c-2-.24-4.17-0.59-6.44-1-0.26.19-.51,0.39-0.79,0.58-6.54,4.48-12.32,9.33-16.89,15.9a12.78,12.78,0,0,1-3.27,3.71,4.58,4.58,0,0,1-2.43.73,3,3,0,0,1-2.18-.83c-4.18-4.14,5.45-18,8.07-21.55q0.5-.69,1-1.35a79.26,79.26,0,0,0-10.55-.83,33.81,33.81,0,0,0-8.13.87,58.13,58.13,0,0,1-14.13,1.94,41.13,41.13,0,0,1-15.69-3.08c-10.37-4.18-21.88-20.23-22.72-31.37-3.52-46.27,26-58.36,53.72-58.36a105.75,105.75,0,0,1,35.93,6.36l0.56-.09a13.32,13.32,0,0,1,1.48-.08,17.28,17.28,0,0,1,10.76,4.2,31.78,31.78,0,0,1-2.3-3.26l-1.47-1.32a75.9,75.9,0,0,1-1.91-17,75.84,75.84,0,0,1,1.87-16.68,55.56,55.56,0,0,1,1.51-5.72,75.33,75.33,0,0,1,10.22-20.85c-0.59-5,2.65-10.78,7-12.12a12.62,12.62,0,0,1,3.72-.64l0.5,0c1-.94,2.11-1.85,3.2-2.73a30.76,30.76,0,0,1-3.68.22,25.8,25.8,0,0,1-11.46-2.55c-1.6-.79-3.33-2.22-3-4,0.26-1.48,1.82-2.29,3.18-2.92a105.82,105.82,0,0,0,18.56-11c5.11-13.84,17.47-25,31.29-30.46a70.4,70.4,0,0,1,25.72-4.59m-96.45,131.69a10.41,10.41,0,0,0-7,4.59,75.48,75.48,0,0,0-24.64-4.1c-31,0-60.32,19.06-45.61,59.92,3.56,9.9,13.67,16.86,21.18,17l2.23,0c11.75,0,17.81-2.49,26.26-11.68,2.77-3,5.14-6.37,8-9.32,6-6.28,15.87-14.8,24.46-14.8h0.16q0.39-3.19.92-6.32a141.79,141.79,0,0,1-11.54-16.18c-1.71-2.8-3.37-5.85-3.32-9.14,0.08-4.84,4.2-8.94,8.93-10m18.86,11.18c0.42-.07.83-0.14,1.25-0.19-1.69-1.94-3-3.23-4-4.34l2.79,4.53m136.45,70.47a3.88,3.88,0,0,0,1-.12c3.49-.91,4.78-1.86,4.55-7-0.28-6.57-8.57-18.82-13.59-31.57l-0.63.44a42.73,42.73,0,0,1,.92,9.56,159.25,159.25,0,0,1-1.76,23c3.08,3,6.71,5.72,9.52,5.72M-1707,985.21h0a73.42,73.42,0,0,0-27,4.83c-15.23,6-27.45,17.71-32.9,31.49a102.43,102.43,0,0,1-17.14,10.05c-1.36.63-4.54,2.09-5.14,5.46-0.54,3,1.29,5.91,4.89,7.69a27.08,27.08,0,0,0,4.1,1.63,16.12,16.12,0,0,0-5.34,12.1,78.65,78.65,0,0,0-10,20.8,59,59,0,0,0-1.58,6,79.54,79.54,0,0,0-1.95,17.41,79.77,79.77,0,0,0,1.26,14.14,17.53,17.53,0,0,0-2.88-.24c-0.55,0-1.1,0-1.64.08a109.5,109.5,0,0,0-36.33-6.27c-13.46,0-32.12,2.82-44.57,16.24-9.87,10.65-14.11,26.07-12.61,45.84,1,12.65,13.29,29.65,24.88,34.32a44.65,44.65,0,0,0,17,3.34,61.55,61.55,0,0,0,15-2,30.52,30.52,0,0,1,7.29-.77c1.33,0,2.75.06,4.28,0.17-7.43,11.07-9.2,18.65-5.26,22.56a6.49,6.49,0,0,0,4.62,1.83,8,8,0,0,0,4.3-1.28,14.71,14.71,0,0,0,4-4.31l0.23-.33c3.68-5.29,8.52-9.87,15.69-14.81l2.45,0.39a144.79,144.79,0,0,0,4.06,21.87l0.05,0.17c0.11,0.36.23,0.72,0.34,1.05l0,0.1,0,0.06c0.13,0.38.25,0.7,0.37,1l0.05,0.12c0.16,0.38.29,0.66,0.43,0.92q0.35,0.65.74,1.31a3.46,3.46,0,0,0-.13,1,3.47,3.47,0,0,0,.06.57c-0.56,2.13-1,4.29-1.38,6.24-0.3,1.53-.59,3-0.9,4.24a9.72,9.72,0,0,0-.23,3.76c0.27,2.21,1.91,4.48,5,6.9l-2.08,4.56a4.83,4.83,0,0,0-.36,3.51,4.82,4.82,0,0,0,1.86,2.46,14.35,14.35,0,0,0,7.52,3.11h0.39a4.47,4.47,0,0,0,2.75-.87,4.73,4.73,0,0,0,1.54-2.14l1.35-3.44,0.42,0.17-0.87,1.9a5,5,0,0,0-.37,3.6,5,5,0,0,0,1.92,2.52,15.36,15.36,0,0,0,8,3.33h0.4a4.56,4.56,0,0,0,2.81-.89,4.85,4.85,0,0,0,1.58-2.21l1.41-3.59,0.43-1.1c2.09,0.21,4.15.31,6.08,0.31,6.14,0,8-1,8.93-2a13.25,13.25,0,0,0,2.5-4.07l0.93-2.1,0.17-.37,2,0.05h3c0.72,0,1.43,0,2.15-.09l0.27,0h0.13c0.62,0,1.24-.09,1.86-0.16l0.73-.08h0.09l1.46-.19,0.14,0,0.68-.1c0.78-.13,1.47-0.25,2.11-0.39a40.1,40.1,0,0,0,4.95-1.37c10-3.5,17.33-11,23.15-17.86a239.28,239.28,0,0,0,15.21-20.12,93.44,93.44,0,0,1-7.55,28.06c-0.92,2.06-2.31,5.16-1.11,8.41a8,8,0,0,0,7.79,5,9.41,9.41,0,0,0,3.41-.63c3.35-1.32,5.5-4,7.25-6.5a133.55,133.55,0,0,0,20.33-44.62,20.62,20.62,0,0,0,11,3.41,20.35,20.35,0,0,0,4.32-.48c8.66-1.88,12-6.4,14.61-13.07,4.12-10.55.82-22-2.08-32-0.33-1.16-.66-2.3-1-3.42a58.75,58.75,0,0,1-1.07-28.24c15-30.92,10.2-73.64-1.76-105.07l0.28,0.05a30.11,30.11,0,0,0,5.5.5c11.79,0,23.35-6.83,28.76-17a23,23,0,0,0,2.63-7.71c0.55-4-.7-6.32-1.84-7.61a8.24,8.24,0,0,0-6.49-2.63,23.2,23.2,0,0,0-4.57.57c-6.91,1.4-14,1.52-21.8,1.52h-23.82c-14.22-10.29-33.65-16.41-52.25-16.41h0Zm-150.3,209.17-2.15,0c-6.05-.14-14.93-6.23-18-14.74-5.58-15.51-4.92-28.34,2-38.16,7.54-10.72,22.63-17.13,40.37-17.13a72.93,72.93,0,0,1,19.77,2.73,12.32,12.32,0,0,0-.51,3.31c-0.07,4.25,1.94,7.9,3.83,11a145.16,145.16,0,0,0,10.82,15.35q-0.17,1.06-.32,2.12c-8.78,1.46-17.78,9.1-24,15.62-1.63,1.69-3.09,3.49-4.5,5.22-1.19,1.46-2.32,2.84-3.52,4.15-7.63,8.29-12.73,10.56-23.72,10.56h0ZM-1654,1195c0.72-5.24,1.2-10.51,1.41-15.74l0.27,0.54c3.13,6.19,6.09,12,6.23,15.19,0.1,2.38-.21,2.9-0.22,2.93a6,6,0,0,1-1.75.61h-0.11c-0.76,0-2.77-.78-5.84-3.54h0Z" transform="translate(1896.11 -985.21)"/>
  </g>
</svg>
